<?xml version="1.0" encoding="UTF-8"?>
<svg width="18px" height="21px" viewBox="0 0 18 21" version="1.1" xmlns="http://www.w3.org/2000/svg" xmlns:xlink="http://www.w3.org/1999/xlink">
    <title>apple</title>
    <g id="Page-1" stroke="none" stroke-width="1" fill="none" fill-rule="evenodd">
        <g id="1.1-sign-in" transform="translate(-221.000000, -215.000000)" fill="#FFFFFF" fill-rule="nonzero">
            <g id="apple" transform="translate(221.000000, 215.000000)">
                <path d="M0.928912854,7.71966543 C-0.933189802,10.8004695 0.250583195,15.4757592 2.3097647,18.3105534 C3.33762226,19.7278128 4.37826214,21 5.80359935,21 C5.83046389,21 5.85740065,20.999518 5.88498736,20.9984852 C6.55465103,20.9730098 7.03857385,20.776436 7.50646461,20.586472 C8.03176749,20.3730293 8.57505228,20.1523572 9.42720707,20.1523572 C10.2379096,20.1523572 10.7552686,20.3658687 11.2555846,20.5722884 C11.7486789,20.7756786 12.2565776,20.9860918 13.0070516,20.9726656 C14.612569,20.9441606 15.5983243,19.57138 16.4680277,18.3603337 C17.3755726,17.095858 17.8308254,15.8681495 17.98443,15.3989887 L17.9906406,15.3803297 C18.0198883,15.2969494 17.9785804,15.2059264 17.8947371,15.169228 C17.8924261,15.1681952 17.8839046,15.1648214 17.8815214,15.1638575 C17.5987938,15.0536247 15.1187345,14.0046572 15.0926643,11.145627 C15.0684718,8.82281981 16.9531782,7.59277032 17.3311594,7.369826 L17.3487803,7.35936042 C17.389727,7.33422927 17.4182525,7.29436368 17.4279295,7.24878334 C17.4376066,7.20327186 17.4274962,7.15590135 17.400054,7.11761937 C16.0991458,5.30253038 14.105248,5.02897949 13.3024893,4.99606801 C13.1860041,4.98498276 13.0657636,4.97940571 12.9450176,4.97940571 C12.0021589,4.97940571 11.098947,5.31891727 10.3733155,5.59171079 C9.87242184,5.78002231 9.43977274,5.94265186 9.14137413,5.94265186 C8.80607288,5.94265186 8.37096842,5.77802559 7.86711385,5.58744193 C7.19333383,5.33248121 6.42964426,5.04357622 5.62118045,5.04357622 C5.60189865,5.04357622 5.5829057,5.04378278 5.56420163,5.04412704 C3.68440593,5.07049754 1.9081687,6.09584862 0.928912854,7.71966543 Z" id="XMLID_229_"></path>
                <path d="M13.3041503,0.000132295555 C12.1658015,0.0443355856 10.8002595,0.712411168 9.98406856,1.62388025 C9.290429,2.39000176 8.61282151,3.66735291 8.79134072,4.95489423 C8.80253428,5.03545163 8.87128439,5.09762541 8.95628322,5.10389099 C9.03312158,5.10960574 9.11154871,5.11249755 9.18968697,5.1125664 C10.30276,5.1125664 11.5035039,4.52546133 12.3235223,3.58011682 C13.1865818,2.58189362 13.6229862,1.30082443 13.4909744,0.153329056 C13.4805752,0.0634077217 13.3975985,-0.00337918076 13.3041503,0.000132295555 Z" id="XMLID_230_"></path>
            </g>
        </g>
    </g>
</svg>